<?xml version="1.0" encoding="UTF-8"?>
<!DOCTYPE svg PUBLIC "-//W3C//DTD SVG 1.1//EN" "http://www.w3.org/Graphics/SVG/1.1/DTD/svg11.dtd">
<!-- Creator: CorelDRAW 2018 (64-Bit Evaluation Version) -->
<svg xmlns="http://www.w3.org/2000/svg" xml:space="preserve" width="300px" height="35px" version="1.1" style="shape-rendering:geometricPrecision; text-rendering:geometricPrecision; image-rendering:optimizeQuality; fill-rule:evenodd; clip-rule:evenodd"
viewBox="0 0 300 35.27"
 xmlns:xlink="http://www.w3.org/1999/xlink">
 <defs>
  <style type="text/css">
   <![CDATA[
    .fil0 {fill:black}
   ]]>
  </style>
 </defs>
 <g id="Layer_x0020_1">
  <metadata id="CorelCorpID_0Corel-Layer"/>
  <path class="fil0" d="M0 35.14l0 -34.94c0.04,-0.04 0.04,-0.1 0.1,-0.1 0.04,0 0.04,-0.04 0.1,-0.04 0.24,0 0.44,-0.06 0.7,-0.06l298.76 0c0.1,0 0.2,0.04 0.34,0.1l0 34.98c-0.74,0.2 -298.46,0.26 -300,0.06l0 0zm282.26 -9.33l0 -20.94 2.14 0 0 24.78 -2.74 0c-4.18,-6.97 -8.41,-13.95 -12.81,-21.18 -0.2,1.34 -0.1,2.54 -0.1,3.7l0 17.54 -2.19 0 0 -24.78c0.85,-0.2 1.65,-0.1 2.45,-0.06 0.2,0 0.38,0.3 0.54,0.5 0.44,0.7 0.9,1.46 1.34,2.2 3.54,5.84 7.09,11.71 10.63,17.54 0.14,0.26 0.34,0.56 0.5,0.8 0.04,-0.04 0.14,-0.1 0.24,-0.1l0 0 0 0zm-46.45 -7.93c2.1,4 4.13,7.83 6.23,11.83l-2.14 0c-0.4,0 -0.56,-0.3 -0.7,-0.6 -0.73,-1.5 -1.53,-3 -2.29,-4.44 -1.04,-1.99 -2.1,-3.99 -3.08,-6.03 -0.26,-0.46 -0.5,-0.7 -1.06,-0.66 -0.9,0.06 -1.8,0 -2.84,0l0 11.63 -2.09 0c-0.2,-0.7 -0.24,-22.94 -0.1,-24.68 0.1,-0.06 0.16,-0.1 0.26,-0.1 2.43,0.04 4.87,0.04 7.37,0.14 0.64,0 1.3,0.2 1.9,0.4 2.17,0.76 3.43,2.36 3.77,4.6 0.16,0.94 0.16,1.9 0,2.84 -0.3,2.33 -1.64,3.93 -3.87,4.69 -0.36,0.14 -0.76,0.24 -1.36,0.38l0 0 0 0zm-5.84 -2.14l4.24 0c0.4,0 0.86,-0.04 1.26,-0.14 2.2,-0.36 3.48,-1.89 3.54,-4.13 0,-2.26 -1.2,-3.9 -3.44,-4.14 -1.74,-0.2 -3.6,-0.1 -5.4,-0.16 -0.04,0 -0.1,0.06 -0.2,0.16l0 8.41 0 0zm-73.14 -0.04l0 -10.77 2.04 0c0.2,0.7 0.3,22.72 0.1,24.78l-2.14 0c-0.06,-3.84 0,-7.67 -0.06,-11.57l-11.74 0 0 11.61c-0.4,0 -0.76,0.06 -1.1,0.06l-1.06 0 0 -24.84 2.16 0 0 10.77c3.97,-0.04 7.81,-0.04 11.8,-0.04l0 0zm90.79 7.58l-2.38 6.43 -2.34 0c3.14,-8.33 6.27,-16.54 9.41,-24.84l2.24 0c3.04,8.24 6.03,16.51 9.07,24.84l-2.44 0c-0.74,-2.1 -1.54,-4.24 -2.3,-6.43l-11.26 0zm5.79 -15.31c-0.66,1.1 -4.7,12.21 -4.74,12.91l9.31 0c-1.49,-4.34 -3.03,-8.57 -4.57,-12.91zm-39.32 21.74l-2.1 0 0 -11.47c-0.74,-0.26 -10.21,-0.36 -11.86,-0.1l0 11.57 -2.14 0 0 -24.78 2.14 0 0 10.67c0.86,0.24 10.73,0.24 11.82,0.04l0 -10.71 2.14 0 0 24.78 0 0 0 0zm-160.13 -11.63l-11.8 0 0 11.57 -2.04 0 -0.06 -0.04 -0.04 -0.06c0,-0.24 -0.06,-0.44 -0.06,-0.7l0 -23.68c0,-0.1 0.06,-0.2 0.1,-0.34l2.06 0c0.04,1.2 0,2.4 0,3.6l0 7.21 11.7 0c0.14,-1.2 0.04,-2.37 0.04,-3.57l0 -3.54 0 -3.66 2.06 0c0.24,0.7 0.34,22.64 0.1,24.78l-2.16 0c0.1,-3.78 0.1,-7.67 0.1,-11.57l0 0zm53.43 -13.21l13.3 0 0 2.26 -11.01 0 0 8.51c1.14,0.2 2.3,0.06 3.4,0.1l6.91 0 0 2.2c-1.14,0.14 -2.28,0.04 -3.37,0.1l-6.94 0 0 9.41c3.84,0.06 7.63,0 11.51,0.06 0,0.4 0.06,0.74 0.06,1.1l0 0.94c-0.7,0.26 -11.97,0.36 -13.86,0.1l0 -24.78 0 0 0 0zm-102.26 24.74l0 -24.74 13.21 0 0 2.2 -10.87 0c-0.24,0.8 -0.3,7.63 -0.04,8.63l10.21 0 0 2.18c-1.14,0.16 -2.3,0.06 -3.4,0.1l-6.91 0 0 9.43 11.51 0 0 2.14c-0.66,0.26 -12.57,0.3 -13.71,0.06l0 0zm84.11 -3.1c0.66,-0.5 1.3,-1 2,-1.5 0.26,0.36 0.46,0.66 0.66,0.96 1.28,1.78 3.58,2.58 5.72,1.94 3.15,-1 3.75,-4.2 2.99,-6.23 -0.3,-0.8 -0.84,-1.4 -1.6,-1.84 -0.73,-0.4 -1.49,-0.76 -2.27,-1.1 -0.86,-0.36 -1.8,-0.7 -2.66,-1.04 -2.84,-1.2 -4.24,-3.36 -4.28,-6.43 -0.06,-3.2 1.64,-5.74 4.48,-6.69 3.14,-1.04 6.43,-0.08 8.17,2.39 0.1,0.16 0.16,0.3 0.3,0.5 -0.6,0.5 -1.14,1 -1.78,1.5 -0.26,-0.3 -0.46,-0.54 -0.66,-0.74 -1.64,-1.96 -4.67,-2.26 -6.73,-0.66 -0.24,0.2 -0.5,0.46 -0.7,0.7 -1.64,2.14 -1.08,5.38 1.2,6.77 0.9,0.56 1.96,0.9 2.96,1.3 0.94,0.4 1.87,0.7 2.77,1.16 2.04,1.08 3.1,2.84 3.2,5.18 0.04,1.43 -0.06,2.89 -0.76,4.17 -1.08,2.1 -2.78,3.3 -5.13,3.5 -3.04,0.3 -5.68,-0.54 -7.58,-3.2 -0.1,-0.2 -0.14,-0.4 -0.3,-0.64l0 0 0 0zm-53.9 -19.04c-0.66,0.5 -1.2,1 -1.86,1.5 -0.3,-0.34 -0.54,-0.7 -0.83,-1 -2.2,-2.34 -6.34,-1.74 -7.68,1.04 -1.1,2.3 -0.3,4.94 1.94,6.19 0.9,0.5 1.94,0.8 2.9,1.2 0.6,0.24 1.18,0.4 1.74,0.64 2.59,1.1 3.97,3.04 4.03,5.94 0,1.09 -0.06,2.13 -0.44,3.19 -0.8,2.08 -2.29,3.44 -4.49,4.04 -3.44,0.88 -7.04,-0.56 -8.91,-3.66 0.64,-0.48 1.28,-0.98 1.97,-1.54 0.26,0.36 0.46,0.66 0.66,0.96 1.44,2.04 4.24,2.78 6.48,1.68 1.6,-0.8 2.39,-2.08 2.53,-3.88 0.16,-1.83 -0.59,-3.23 -2.23,-4.13 -0.8,-0.4 -1.6,-0.7 -2.44,-1.06 -0.96,-0.4 -1.96,-0.74 -2.9,-1.18 -2.23,-1.16 -3.33,-3.06 -3.43,-5.53 -0.06,-0.7 -0.06,-1.4 0.1,-2.06 0.8,-4.54 4.83,-5.81 7.83,-5.47 2.08,0.19 3.83,1.13 5.03,3.13l0 0 0 0zm94.88 -0.34l-7.27 0 0 -2.26 16.74 0 0 2.26 -7.27 0 0 22.52 -2.2 0 0 -22.52zm55.06 0l-7.27 0 0 -2.16c0.7,-0.2 15.64,-0.24 16.74,-0.04l0 2.2 -7.23 0 0 22.52 -2.18 0c-0.06,-2.44 0,-4.94 0,-7.37l0 -7.58c-0.06,-2.49 -0.06,-4.93 -0.06,-7.57l0 0zm36.68 22.58l-2.03 0 0 -24.78 2.03 0 0 24.78 0 0zm70.37 -24.84l0 30.01 7.27 0c0.06,-0.14 0.1,-0.24 0.1,-0.34l0 -33.6c0,-0.14 -0.04,-0.3 -0.04,-0.5 0,-0.04 -0.06,-0.04 -0.06,-0.1l-0.04 -0.04c-2.36,-0.2 -131.76,-0.1 -132.62,0.14l0 29.21 -2.2 0 0 -9.87 0 -9.71c0,-3.24 0.06,-6.53 0,-9.77l-164.3 0c-0.24,1 -0.2,33.78 0.06,34.64l78.8 0c-1.46,-3.99 -2.8,-7.83 -4.2,-11.66l-11.27 0c-0.8,2.13 -1.6,4.27 -2.44,6.47l-1.69 0c-0.14,0 -0.3,-0.04 -0.54,-0.04 3.13,-8.33 6.27,-16.6 9.41,-24.78l2.19 0c3.7,10.01 7.38,20.04 11.01,29.95l208.36 0 0 -6.03c0,-2 0.06,-3.98 0.06,-5.97l0 -5.98 0 -5.99c0,-1.98 -0.1,-3.98 0.04,-5.98 0.7,-0.06 1.3,-0.06 2.1,-0.06l0 0 0 0zm-218.13 16.01c-1.54,-4.34 -3.1,-8.57 -4.57,-12.75l-0.2 0c-1.56,4.24 -3.14,8.47 -4.74,12.81 3.18,-0.06 6.27,-0.06 9.51,-0.06l0 0z"/>
 </g>
</svg>
